<svg version="1.1" id="Layer_1" xmlns="http://www.w3.org/2000/svg" xmlns:xlink="http://www.w3.org/1999/xlink" x="0px" y="0px"
	 width="100%" viewBox="0 0 183 177" enable-background="new 0 0 183 177" xml:space="preserve">
<path fill="#FFFFFF" opacity="1.000000" stroke="none" 
	d="
M171.375000,178.000000 
	C170.247360,176.069595 168.995499,174.183792 168.818405,172.201965 
	C166.790894,149.511063 150.503967,134.370728 127.697433,134.313293 
	C103.208282,134.251633 78.718781,134.267731 54.229561,134.315582 
	C31.528103,134.359940 15.119445,149.654495 13.135969,172.272003 
	C12.981508,174.033325 11.352798,175.665359 10.204641,177.678741 
	C9.250000,178.000000 8.500000,178.000000 7.375000,178.000000 
	C6.286491,175.732651 4.898047,173.445663 4.963373,171.200974 
	C5.653570,147.484802 25.502598,126.715546 49.324924,126.117149 
	C77.110870,125.419205 104.940155,125.434532 132.727295,126.106010 
	C156.446686,126.679184 176.379013,147.556900 177.010422,171.251968 
	C177.063705,173.251297 175.302582,175.298950 174.192200,177.662079 
	C173.250000,178.000000 172.500000,178.000000 171.375000,178.000000 
z"/>
<path fill="#FFFFFF" opacity="1.000000" stroke="none" 
	d="
M78.476303,6.427727 
	C109.199181,-0.507493 140.081757,19.124929 145.764893,50.938671 
	C150.992294,80.201241 131.851227,108.652481 103.051956,114.863022 
	C73.525925,121.230301 44.112583,103.045982 37.028503,74.045113 
	C29.848078,44.649803 46.950771,15.342347 76.138092,7.032294 
	C76.778137,6.850064 77.430916,6.712511 78.476303,6.427727 
M45.792732,73.411659 
	C53.836655,99.847908 80.908089,113.819794 106.734230,104.864288 
	C131.419907,96.304276 144.307709,68.452400 134.959381,43.866852 
	C126.331886,21.177040 101.065933,8.544174 78.038055,15.406408 
	C53.308983,22.775595 39.757179,46.650921 45.792732,73.411659 
z"/>
</svg>