<svg version="1.1" id="Layer_1" xmlns="http://www.w3.org/2000/svg" xmlns:xlink="http://www.w3.org/1999/xlink" x="0px" y="0px"
	 width="100%" viewBox="0 0 272 272" enable-background="new 0 0 272 272" xml:space="preserve">
<path fill="#FFFFFF" opacity="1.000000" stroke="none" 
	d="
M114.468658,273.000000 
	C107.012665,270.329010 99.536125,269.313080 92.595306,266.401917 
	C44.749943,246.334503 15.968081,210.713425 8.107297,159.585754 
	C-3.022757,87.194321 50.770702,17.414188 123.093353,8.858605 
	C195.349960,0.310836 258.586487,46.939514 272.304138,118.877312 
	C272.397064,119.364639 272.559906,119.838646 272.845032,120.659439 
	C273.000000,134.354233 273.000000,147.708450 272.851746,161.879791 
	C272.596558,163.011124 272.450958,163.317825 272.388092,163.640640 
	C262.867004,212.521683 235.020920,246.500381 189.298798,266.032928 
	C182.078812,269.117340 174.276276,270.183167 167.000000,273.000000 
	C149.645767,273.000000 132.291550,273.000000 114.468658,273.000000 
M147.430161,76.732201 
	C144.536758,68.475769 145.297409,60.438396 148.445099,52.370224 
	C150.598984,46.849354 153.712509,43.490807 160.181778,43.611706 
	C165.177994,43.705078 170.076859,42.175533 174.726364,40.333561 
	C181.041412,37.831757 186.858017,34.473305 191.701874,29.438406 
	C157.004578,1.200738 61.813740,24.984062 42.238190,66.759758 
	C49.402905,66.065865 55.943813,64.550056 61.683777,60.674870 
	C68.168098,56.297142 74.406868,51.557377 80.837486,47.097698 
	C83.849106,45.009121 87.013458,42.865028 90.995918,43.976559 
	C106.207718,48.222275 118.519600,56.449642 126.392075,70.456573 
	C129.208786,75.468147 129.915649,80.794083 127.245522,86.239983 
	C121.715080,97.519653 113.856636,106.444664 102.087135,111.514900 
	C97.931847,113.304985 97.178841,115.699387 99.256821,119.755287 
	C100.897438,122.957535 104.013222,124.259232 106.878746,125.942902 
	C113.221146,129.669434 114.523689,133.180557 112.275322,140.125565 
	C110.189545,146.568329 106.994843,152.355011 101.970345,156.983017 
	C99.065239,159.658890 96.020920,162.183609 92.853180,164.938156 
	C94.929825,167.863312 97.749710,169.652771 100.396637,171.587296 
	C106.143570,175.787476 108.121590,181.326630 106.627296,188.211578 
	C104.113098,199.795746 97.598412,208.782181 88.600433,216.204346 
	C84.639374,219.471710 80.273720,220.119263 75.486816,218.642334 
	C70.397133,217.072021 65.351639,215.349091 60.228508,213.898926 
	C53.765186,212.069412 47.265366,211.448135 40.789455,214.080887 
	C47.565678,232.758423 96.270172,264.072906 115.955521,262.244019 
	C115.388313,259.661224 114.820610,257.115967 114.270920,254.566818 
	C110.207253,235.721603 118.628456,218.713654 135.828125,210.844284 
	C139.350296,209.232788 142.408875,208.842148 145.168747,212.296005 
	C147.237930,214.885529 150.288910,215.996201 153.469513,216.497833 
	C159.426254,217.437363 162.289658,215.068222 162.853409,209.161972 
	C163.722595,200.055618 167.384659,192.203964 173.698364,185.571640 
	C175.380402,183.804733 177.312668,182.887100 179.773285,182.529190 
	C192.284897,180.709274 205.524231,187.510345 212.507675,199.289810 
	C214.203125,202.149658 214.597931,204.677048 213.019958,207.697311 
	C210.463928,212.589584 208.520523,217.802368 207.802139,223.259293 
	C206.882385,230.245789 206.150360,237.335785 208.934845,245.190765 
	C234.174301,227.831863 251.177277,205.420364 259.649841,176.748642 
	C267.523071,150.104965 266.433075,123.763321 256.781555,97.636917 
	C253.853958,98.363335 252.935501,100.274620 251.651901,101.719688 
	C237.685394,117.443321 218.414291,121.106064 201.748764,111.355148 
	C196.709961,108.406967 192.992371,105.228958 195.554733,98.633919 
	C196.059723,97.334160 195.809723,95.641151 195.591019,94.176834 
	C194.420349,86.338165 189.626373,83.742073 182.600220,87.022049 
	C181.244629,87.654861 179.868790,88.333183 178.427582,88.679863 
	C165.997589,91.669884 152.360687,92.367340 147.430161,76.732201 
M26.496500,191.046158 
	C28.345917,194.771072 30.291710,198.452194 32.011730,202.235931 
	C33.209152,204.870056 34.982906,205.463730 37.624943,204.685287 
	C49.034168,201.323654 59.962132,203.564041 70.836937,207.392075 
	C81.843895,211.266632 84.016182,210.392975 90.912758,200.570633 
	C93.510551,196.870773 95.703850,192.981384 97.046127,188.628983 
	C98.350372,184.399902 98.010834,180.889938 93.843910,178.227341 
	C91.199341,176.537491 88.813530,174.384766 86.512962,172.225204 
	C79.336327,165.488373 79.518417,162.151871 87.568993,156.707764 
	C93.761765,152.519943 98.896355,147.576920 102.091553,140.644989 
	C103.890907,136.741333 103.460327,134.535370 99.425102,132.314301 
	C90.244415,127.261047 86.896851,119.052963 88.876663,108.648994 
	C89.352905,106.146301 90.662346,105.114120 93.116898,104.554497 
	C103.838356,102.110100 111.217827,95.378937 116.930992,86.194420 
	C120.377075,80.654488 119.748901,75.884789 116.051117,71.072548 
	C110.444809,63.776596 103.225655,58.623367 94.847794,54.884117 
	C90.565865,52.972984 87.120178,53.314190 83.465950,56.447659 
	C70.197067,67.825607 55.638561,76.496994 37.459339,76.907753 
	C34.569290,76.973068 33.080025,78.676590 31.816954,81.066925 
	C13.023654,116.632805 11.107861,153.041565 26.496500,191.046158 
M220.307632,46.197872 
	C215.473694,42.101295 210.247528,38.557777 204.906189,35.165035 
	C202.852798,33.860737 201.236984,33.563293 199.216492,35.510349 
	C188.672256,45.671261 175.906189,51.263905 161.489105,53.172794 
	C159.253265,53.468830 157.726624,54.214966 156.967590,56.369564 
	C154.486420,63.412628 154.299133,70.329704 157.866638,77.129089 
	C159.057541,79.398842 160.670059,80.571609 163.324692,80.749496 
	C170.670456,81.241745 177.660706,80.574837 183.492218,75.473419 
	C185.983627,73.293922 188.531021,73.207008 191.263000,74.878181 
	C199.867188,80.141434 205.921371,87.095039 205.182053,97.855827 
	C204.894318,102.043671 206.627258,103.994896 210.207489,105.155472 
	C212.582352,105.925308 214.934433,106.625679 217.454239,106.875893 
	C231.590179,108.279541 240.959595,100.737747 249.115036,90.501045 
	C251.464127,87.552467 251.558655,85.205368 249.764496,82.007607 
	C242.191742,68.510483 232.581619,56.725166 220.307632,46.197872 
M152.014420,225.975220 
	C148.744980,225.266296 145.408600,224.544159 142.809387,222.343735 
	C139.626129,219.648880 137.009903,220.298477 133.984833,222.698914 
	C122.868240,231.520111 119.242561,251.376755 126.710518,263.188202 
	C127.704727,264.760651 129.070267,265.474121 130.832489,265.578156 
	C153.911270,266.940491 175.900513,262.853302 196.629227,252.434402 
	C199.071182,251.207016 199.723938,249.589417 199.097687,246.769989 
	C196.162872,233.557678 197.396851,220.665161 202.573929,208.125366 
	C204.716797,202.934998 203.069870,199.818390 196.283661,195.404663 
	C189.781448,191.175690 182.408157,190.348206 179.216980,193.513733 
	C178.628433,194.097580 178.079422,194.740814 177.613297,195.425491 
	C173.647690,201.250320 171.134247,207.488358 172.829391,214.675461 
	C173.565155,217.794937 172.437943,219.816269 169.897842,221.377365 
	C164.669983,224.590271 159.063538,226.423553 152.014420,225.975220 
z"/>
</svg>